<?xml version="1.0" standalone="no"?>
<!DOCTYPE svg PUBLIC "-//W3C//DTD SVG 20010904//EN"
 "http://www.w3.org/TR/2001/REC-SVG-20010904/DTD/svg10.dtd">
<svg version="1.0" xmlns="http://www.w3.org/2000/svg"
 width="512.000000pt" height="512.000000pt" viewBox="0 0 512.000000 512.000000"
 preserveAspectRatio="xMidYMid meet">
<metadata>
Created by potrace 1.11, written by Peter Selinger 2001-2013
</metadata>
<g transform="translate(0.000000,512.000000) scale(0.100000,-0.100000)"
fill="#000000" stroke="none">
<path d="M1081 4956 l-167 -167 -62 63 -61 62 -61 -63 -60 -63 564 -565 565
-565 -29 -58 c-24 -48 -33 -57 -50 -53 -11 3 -23 9 -26 14 -15 26 -38 0 -88
-100 l-55 -108 -63 -23 c-222 -79 -217 -75 -223 -158 -4 -55 -17 -256 -19
-292 -1 -22 3 -25 41 -28 l42 -3 -5 -107 -6 -107 -429 -430 c-372 -374 -429
-435 -429 -460 0 -17 4 -36 9 -44 5 -8 79 -85 165 -171 l156 -156 -60 -61 -61
-61 61 -62 61 -62 225 223 c123 123 227 226 229 228 3 3 3 -18 1 -45 -2 -27
-4 -73 -5 -101 l-1 -53 -40 4 c-22 2 -42 1 -44 -3 -2 -3 -7 -56 -10 -116 -3
-61 -8 -135 -11 -165 -3 -30 -7 -95 -10 -145 -12 -211 -15 -265 -21 -345 -3
-46 -7 -86 -10 -89 -2 -2 -46 -4 -97 -3 -76 1 -100 -3 -125 -18 -37 -23 -34
-7 -37 -245 -2 -196 5 -228 51 -245 16 -6 653 -10 1686 -10 l1660 0 27 29 27
29 -1 199 c-1 109 -5 206 -10 216 -14 32 -48 42 -148 43 -54 1 -100 4 -102 6
-4 4 -14 136 -14 206 l-1 54 -40 -3 c-21 -2 -42 0 -45 3 -4 4 -9 44 -11 90
l-5 83 149 148 148 147 62 -61 62 -62 61 62 61 63 -299 299 c-164 165 -299
301 -300 302 -1 1 -4 50 -7 109 -6 103 -5 108 14 108 11 0 21 -1 23 -2 6 -4
47 24 43 30 -4 6 -12 117 -21 282 -13 240 -17 310 -20 340 -3 19 -7 94 -11
165 -3 72 -8 141 -9 155 -2 14 -4 35 -4 48 -1 19 -6 22 -46 22 -31 0 -45 4
-44 13 1 6 1 26 0 43 -1 27 -6 32 -43 43 -23 7 -53 17 -67 22 -23 9 0 35 487
522 536 537 532 532 503 585 -5 9 -79 87 -165 173 l-155 155 60 62 61 62 -61
61 -62 61 -538 -538 c-297 -296 -543 -540 -548 -541 -4 -2 -24 29 -43 68 l-34
70 19 35 c10 19 16 36 14 37 -21 16 -74 49 -119 74 -30 17 -93 53 -140 80 -47
27 -114 65 -150 85 -36 20 -81 45 -100 57 -76 45 -110 61 -131 61 -12 0 -54
-18 -93 -40 -109 -61 -102 -53 -78 -94 l21 -35 -58 -36 c-32 -19 -63 -35 -67
-35 -5 0 -223 214 -484 475 -424 424 -480 476 -513 482 -38 6 -38 6 -206 -161z"/>
</g>
</svg>
