<svg enable-background="new 0 0 512 512" height="512" viewBox="0 0 512 512" width="512" xmlns="http://www.w3.org/2000/svg"><g id="Line_expand"><g><path d="m477.856 117.502c-2.332-1.346-4.717-2.554-7.147-3.622l24.218-41.947-13.855-8-26.039 45.101c-10.433-1.949-21.255-1.553-31.812 1.275-2.466.661-4.878 1.444-7.229 2.344l13.366-23.151-13.855-8-13.397 23.205c-2.055-13.025-7.651-25.423-16.373-35.643l26.056-45.13-13.855-8-24.221 41.952c-2.129-1.566-4.366-3.031-6.708-4.383-3.826-2.21-8.72-.898-10.928 2.928l-16.001 27.713c-7.421 12.854-10.415 27.07-9.458 40.87-1.175-.773-2.379-1.517-3.613-2.229-3.826-2.21-8.72-.899-10.928 2.928l-16.001 27.713c-7.421 12.854-10.415 27.069-9.458 40.868-1.178-.774-2.382-1.517-3.613-2.227-3.827-2.209-8.719-.898-10.928 2.928l-16 27.713c-1.7 2.944-3.18 5.986-4.436 9.1-1.092-2.505-2.331-4.965-3.718-7.367l-16-27.713c-2.208-3.825-7.1-5.139-10.928-2.928-1.231.711-2.435 1.454-3.613 2.227.957-13.799-2.038-28.015-9.459-40.869l-16-27.713c-2.208-3.826-7.1-5.139-10.928-2.928-1.231.711-2.435 1.454-3.613 2.227.957-13.799-2.038-28.015-9.459-40.869l-16-27.713c-2.208-3.825-7.099-5.14-10.928-2.928-2.342 1.352-4.578 2.817-6.708 4.383l-24.221-41.952-13.855 8 26.056 45.13c-8.722 10.22-14.318 22.618-16.373 35.643l-13.397-23.202-13.855 8 13.366 23.151c-2.352-.9-4.763-1.683-7.229-2.344-10.556-2.829-21.378-3.224-31.812-1.275l-26.039-45.101-13.855 8 24.218 41.947c-2.43 1.068-4.815 2.276-7.147 3.622-3.826 2.209-5.138 7.102-2.928 10.928l5.679 9.836 13.855-8-1.396-2.42c11.172-4.493 23.443-5.254 35.284-2.082 14.448 3.872 26.524 13.138 34.003 26.092l11.716 20.292c-25.42 10.178-55.203.385-69.284-24.004l-13.857 8c7.421 12.854 18.235 22.555 30.664 28.626-1.259.633-2.504 1.305-3.735 2.015-3.826 2.209-5.138 7.102-2.928 10.928l15.999 27.713c7.252 12.561 17.866 22.425 30.614 28.651-1.242.626-2.471 1.289-3.686 1.99-3.826 2.209-5.138 7.102-2.928 10.928l15.999 27.713c7.252 12.561 17.866 22.425 30.615 28.651-1.242.626-2.471 1.289-3.686 1.99-3.826 2.209-5.138 7.102-2.928 10.928l15.999 27.713c13.321 23.073 37.571 35.986 62.476 35.986 4.337 0 8.693-.392 13.015-1.19l52.109 91.442c1.423 2.497 4.076 4.039 6.95 4.039h36.831c2.85 0 5.485-1.516 6.917-3.98s1.444-5.504.033-7.98l-22.795-40-13.9 7.922 15.978 28.037h-18.416l-47.811-83.9 6.95-4.013c.006-.003.011-.006.017-.01.007-.004.015-.009.022-.013l6.866-3.965 27.274 47.861 13.9-7.922-16.812-29.503c20.063-4.107 37.613-16.618 47.963-34.547l16-27.713c2.21-3.826.898-8.719-2.928-10.928-1.219-.704-2.456-1.369-3.707-1.996 12.764-6.251 23.43-16.164 30.636-28.644l16-27.713c2.209-3.826.897-8.719-2.929-10.928-1.216-.702-2.446-1.366-3.69-1.992 11.264-5.516 21.215-14.039 28.533-25.255l-13.4-8.743c-14.748 22.604-43.254 31.141-67.657 21.355l11.717-20.293c7.479-12.954 19.555-22.221 34.003-26.092 11.842-3.172 24.111-2.411 35.284 2.083l-3.964 6.871 13.855 8 8.249-14.288c2.21-3.826.898-8.719-2.928-10.928-1.231-.711-2.477-1.382-3.736-2.016 12.429-6.072 23.244-15.772 30.664-28.625l16-27.713c2.21-3.826.899-8.719-2.928-10.928zm-123.922-25.359 11.715-20.292c21.524 16.923 27.936 47.615 13.854 72.004l-11.715 20.291c-21.525-16.922-27.935-47.613-13.854-72.003zm-208.365 92.088c1.218-.703 2.406-1.436 3.567-2.199-.19 2.74-.222 5.48-.098 8.207-2.3-1.471-4.688-2.813-7.156-4.018 1.24-.624 2.47-1.287 3.687-1.99zm40 69.282c1.218-.703 2.406-1.436 3.567-2.198-.19 2.74-.222 5.48-.098 8.207-2.299-1.471-4.687-2.812-7.155-4.018 1.243-.626 2.472-1.29 3.686-1.991zm40 69.282c1.231-.71 2.435-1.454 3.613-2.227-.19 2.743-.224 5.503-.098 8.266-2.313-1.483-4.717-2.834-7.201-4.047 1.243-.627 2.472-1.291 3.686-1.992zm38.644 50.932-11.715-20.291c-14.082-24.39-7.671-55.081 13.854-72.004l11.715 20.292c14.08 24.389 7.67 55.08-13.854 72.003zm62.218-121.948c1.217.703 2.447 1.366 3.687 1.99-2.468 1.205-4.857 2.547-7.156 4.018.125-2.727.092-5.466-.098-8.207 1.16.763 2.349 1.496 3.567 2.199zm-12.497-90.354 11.715-20.292c21.524 16.923 27.936 47.615 13.854 72.004l-11.715 20.291c-21.525-16.922-27.936-47.613-13.854-72.003zm-40.001 69.283 11.719-20.297c9.479 7.43 16.273 17.676 19.445 29.516 3.872 14.448 1.885 29.54-5.594 42.494l-7.058 12.224c-.172-.308-.346-.615-.522-.921l-16-27.713c-1.918-3.323-5.862-4.75-9.375-3.618-.732-11 1.801-22.013 7.385-31.685zm-47.584-18.563 11.718 20.297c7.479 12.954 9.466 28.045 5.595 42.494-3.173 11.84-9.967 22.086-19.445 29.516l-11.718-20.297c-7.479-12.954-9.467-28.045-5.595-42.494 3.171-11.841 9.966-22.087 19.445-29.516zm-40-69.283 11.718 20.297c14.082 24.39 7.671 55.081-13.854 72.004l-11.715-20.292c-7.479-12.954-9.467-28.045-5.595-42.494 3.172-11.839 9.967-22.085 19.446-29.515zm-39.997-69.277 11.715 20.292c14.081 24.39 7.671 55.081-13.854 72.004l-11.715-20.291c-14.082-24.39-7.671-55.081 13.854-72.005zm-45.28 145.574-11.719-20.297c11.172-4.492 23.443-5.254 35.284-2.083 14.448 3.872 26.524 13.138 34.003 26.092l11.716 20.292c-25.419 10.18-55.204.386-69.284-24.004zm40 69.282-11.719-20.297c11.172-4.493 23.444-5.254 35.284-2.082 14.448 3.872 26.524 13.138 34.003 26.092l11.719 20.297c-11.174 4.494-23.445 5.254-35.284 2.083-14.448-3.872-26.524-13.139-34.003-26.093zm40 69.282-11.719-20.297c11.172-4.492 23.443-5.254 35.284-2.082 14.448 3.872 26.524 13.138 34.003 26.092l11.716 20.292c-25.419 10.178-55.204.385-69.284-24.005zm149.856-1.734c-8.943 15.491-24.8 25.782-42.573 27.69l-4.072-7.146c9.899-11.592 15.776-25.989 17.022-40.926 13.314-5.234 28.167-5.143 41.333.1zm40-69.281c-14.063 24.361-43.484 34.396-69.286 24.008l11.718-20.295c7.479-12.954 19.555-22.22 34.003-26.092 11.842-3.173 24.111-2.412 35.284 2.083zm-8.11-106.44c1.175.773 2.379 1.517 3.613 2.229 1.218.703 2.447 1.366 3.688 1.99-2.485 1.213-4.889 2.565-7.202 4.048.125-2.763.091-5.523-.099-8.267zm88.11-32.125c-14.081 24.39-43.867 34.183-69.284 24.004l11.716-20.291c7.479-12.954 19.555-22.22 34.003-26.092 11.842-3.173 24.112-2.412 35.284 2.082z"/><path d="m428.406 389.107-5.755 9.966c-4.262-4.107-7.343-9.307-8.914-15.171-2.278-8.504-1.109-17.386 3.292-25.011l5.75-9.958c3.851 3.721 6.76 8.35 8.437 13.531l15.223-4.929c-3.736-11.541-11.584-21.239-22.097-27.309-1.838-1.061-4.023-1.35-6.07-.799-2.05.549-3.797 1.89-4.857 3.728l-10.241 17.736c-6.538 11.326-8.275 24.52-4.891 37.152 3.385 12.632 11.486 23.19 22.812 29.729 1.26.728 2.635 1.073 3.992 1.073 2.765 0 5.454-1.435 6.936-4.001l10.24-17.736c3.655-6.33 5.811-13.212 6.404-20.454l-15.947-1.308c-.4 4.866-1.851 9.496-4.314 13.761z"/><path d="m58.881 324.873-19.834-5.085c-2.057-.525-4.237-.212-6.063.869s-3.148 2.847-3.676 4.902c-6.701 26.148 9.119 52.874 35.266 59.578l19.833 5.085c.653.167 1.318.25 1.981.25 1.424 0 2.836-.381 4.082-1.118 1.825-1.081 3.148-2.846 3.675-4.902 6.703-26.149-9.118-52.875-35.264-59.579zm20.812 47.622-11.146-2.858c-14.946-3.832-24.88-17.385-24.785-32.123l11.145 2.858c14.948 3.832 24.883 17.387 24.786 32.123z"/><path d="m426.431 56.718h16v15.999h-16z" transform="matrix(.5 -.866 .866 .5 161.158 408.579)"/><path d="m69.57 58.451h15.999v16h-15.999z" transform="matrix(.866 -.5 .5 .866 -22.833 47.687)"/></g></g></svg>