<svg id="Capa_1" enable-background="new 0 0 512.001 512.001" height="512" viewBox="0 0 512.001 512.001" width="512" xmlns="http://www.w3.org/2000/svg"><path d="m468.737 141.677c-.564-.397-8.086-5.616-18.44-9.66 9.902-18.793 5.042-44.623 4.814-45.79-.781-4.007-4.623-6.655-8.646-5.955-1.255.218-30.897 5.563-43.902 24.445-2.445 3.55-3.986 7.534-4.582 11.68-8.082-9.613-17.06-15.744-17.685-16.166-3.386-2.281-7.975-1.436-10.325 1.903-.517.735-10.029 14.429-13.307 30.596-3.261-1.6-7.278-.639-9.427 2.413-.517.735-10.029 14.429-13.307 30.597-3.261-1.6-7.278-.64-9.427 2.413-.517.735-10.028 14.429-13.307 30.596-3.261-1.6-7.278-.64-9.427 2.413-.517.735-10.029 14.429-13.307 30.597-3.26-1.6-7.278-.64-9.427 2.413-.733 1.042-17.915 25.781-13.758 48.329.751 4.074 4.661 6.767 8.735 6.017 4.074-.751 6.767-4.662 6.017-8.735-1.832-9.935 2.952-22.135 7.2-30.175 6.829 5.976 15.625 15.643 17.465 25.628.662 3.589-.317 7.076-2.491 10.093l-45.781 66.473c-5.165 7.499-9.509 15.426-13.037 23.665-3.364-17.272-8.883-34.136-16.44-49.958l-49.735-104.129c-.766-1.604-3.083-6.316-4.431-9.497-1.52-3.587-2.554-7.271-1.258-10.937 3.367-9.524 13.597-17.713 21.289-22.563 2.938 8.585 5.741 21.35 2.357 30.923-1.38 3.905.666 8.19 4.571 9.571 3.906 1.381 8.19-.666 9.571-4.571 7.642-21.617-5.445-48.745-6.006-49.89-1.642-3.351-5.458-4.93-8.93-3.862-.703-16.482-7.956-31.513-8.344-32.305-1.643-3.351-5.457-4.93-8.929-3.863-.703-16.481-7.956-31.512-8.344-32.304-1.642-3.352-5.458-4.931-8.93-3.863-.703-16.482-7.957-31.513-8.345-32.305-1.642-3.351-5.458-4.93-8.929-3.862-.703-16.482-7.956-31.513-8.344-32.305-1.797-3.666-6.195-5.222-9.898-3.499-.626.291-8.901 4.208-17.569 11.166-11.35-17.955-36.163-26.624-37.288-27.009-3.862-1.32-8.074.689-9.474 4.525-.437 1.197-10.587 29.555-.706 50.244 1.893 3.963 4.624 7.253 7.87 9.789-12.378 2.209-22.185 6.942-22.863 7.274-3.666 1.797-5.222 6.196-3.5 9.898.379.815 7.505 15.888 19.883 26.792-3.013 2.029-4.184 5.99-2.609 9.375.379.815 7.505 15.888 19.884 26.793-3.013 2.029-4.184 5.99-2.61 9.374.379.815 7.505 15.889 19.883 26.793-3.013 2.029-4.184 5.99-2.609 9.374.379.815 7.505 15.888 19.884 26.793-3.013 2.029-4.184 5.99-2.61 9.375.538 1.155 13.413 28.385 35.029 36.027 3.025 1.069 6.114 1.577 9.154 1.577 8.548 0 16.699-4.016 21.908-10.823l37.44 78.39c12.192 25.528 18.705 53.975 18.833 82.264l.228 90.262c0 4.142 3.358 7.5 7.5 7.5s7.5-3.358 7.5-7.5v-75.694c0-24.573 7.368-48.258 21.305-68.495l41.45-60.185c2.043 3.794 4.967 7.08 8.618 9.595 4.648 3.201 10.039 4.867 15.563 4.867 1.677 0 3.366-.153 5.05-.464 22.548-4.156 39.536-29.029 40.248-30.086 2.085-3.095 1.551-7.19-1.106-9.667 13.936-8.829 23.347-22.612 23.84-23.343 2.085-3.095 1.551-7.189-1.106-9.666 13.936-8.829 23.347-22.611 23.839-23.343 2.085-3.095 1.551-7.19-1.106-9.667 13.936-8.829 23.347-22.612 23.84-23.343 2.085-3.095 1.551-7.19-1.106-9.667 13.936-8.829 23.347-22.611 23.839-23.342 2.286-3.385 1.44-7.973-1.899-10.324zm-310.501-35.612c2.449 7.093 5.226 18.091 3.286 27.574-4.258 3.138-8.821 7.054-12.78 11.688-1.395-.005-2.776-.235-4.125-.712-3.158-1.117-5.692-3.396-7.136-6.418-1.443-3.023-1.624-6.427-.507-9.585 3.362-9.514 13.573-17.695 21.262-22.547zm-17.275-36.168c2.449 7.093 5.227 18.091 3.286 27.575-4.257 3.137-8.82 7.053-12.779 11.687-1.395-.005-2.777-.235-4.126-.712-6.52-2.305-9.948-9.484-7.644-16.003 3.364-9.513 13.575-17.695 21.263-22.547zm-38.536-13.62c3.363-9.513 13.574-17.695 21.263-22.546 2.449 7.092 5.227 18.09 3.286 27.574-4.258 3.138-8.822 7.054-12.781 11.688-1.394-.005-2.776-.235-4.125-.712-3.158-1.117-5.692-3.396-7.136-6.419s-1.624-6.426-.507-9.585zm-30.517-38.576c8.084 3.961 19.32 11.56 23.77 20.626-3.088 3.869-5.716 8.198-7.396 12.95-.488 1.38-.858 2.783-1.121 4.195-5.662 1.414-11.741-1.298-14.352-6.764-4.354-9.114-2.91-22.138-.901-31.007zm-13.648 65.027c8.585-2.938 21.343-5.735 30.911-2.354 6.519 2.305 9.948 9.484 7.644 16.003-.477 1.349-1.166 2.568-2.038 3.656-6.095.167-12.01 1.255-17.128 2.595-8.599-4.443-15.413-13.535-19.389-19.9zm17.274 36.167c8.584-2.938 21.341-5.736 30.91-2.354 6.52 2.305 9.948 9.484 7.644 16.003-.477 1.349-1.166 2.569-2.039 3.657-6.094.167-12.009 1.255-17.126 2.595-8.598-4.444-15.413-13.537-19.389-19.901zm17.274 36.167c8.585-2.938 21.343-5.735 30.911-2.353 6.519 2.305 9.948 9.483 7.644 16.002-.477 1.349-1.166 2.569-2.039 3.656-6.094.167-12.01 1.255-17.127 2.596-8.599-4.443-15.413-13.536-19.389-19.901zm17.274 36.167c8.585-2.937 21.342-5.735 30.91-2.353 3.158 1.116 5.692 3.396 7.136 6.418 1.443 3.023 1.624 6.427.507 9.585-.476 1.348-1.166 2.568-2.038 3.656-6.094.166-12.01 1.255-17.127 2.595-8.598-4.443-15.412-13.536-19.388-19.901zm55.827 49.818c-2.305 6.52-9.486 9.948-16.003 7.643-9.524-3.367-17.713-13.597-22.563-21.289 8.585-2.939 21.352-5.741 30.923-2.357 6.519 2.304 9.948 9.484 7.643 16.003zm.106-59.553c-1.395-.005-2.777-.235-4.126-.712-6.52-2.305-9.948-9.483-7.644-16.003 3.366-9.521 13.59-17.708 21.281-22.558 2.589 7.581 5.113 18.532 3.267 27.587-4.256 3.137-8.819 7.052-12.778 11.686zm248.902-68.267c5.727-8.314 17.723-13.557 26.411-16.24.591 9.075-.289 22.57-6.011 30.883-4.892-.747-9.954-.865-14.909.048-1.441.266-2.841.645-4.197 1.121-1.698-1.756-2.846-3.97-3.298-6.427-.608-3.292.104-6.626 2.004-9.385zm-36.75 4.37c6.835 6 15.634 15.682 17.463 25.604 1.254 6.8-3.259 13.352-10.059 14.605-1.406.259-2.807.271-4.185.057-3.184-5.199-7.077-9.784-10.791-13.551-.436-9.661 4.039-20.094 7.572-26.715zm-22.734 33.009c6.835 6.001 15.634 15.682 17.463 25.604.607 3.294-.104 6.628-2.004 9.386s-4.76 4.612-8.055 5.219c-1.403.259-2.801.271-4.176.058-.674-1.104-1.38-2.208-2.151-3.309-2.696-3.848-5.727-7.303-8.65-10.259-.43-9.657 4.042-20.081 7.573-26.699zm-22.742 33.023c3.539 3.086 7.958 7.438 11.534 12.543 3.18 4.537 5.177 8.927 5.937 13.047.607 3.294-.104 6.628-2.004 9.386s-4.761 4.612-8.055 5.219c-1.406.26-2.807.271-4.185.057-3.184-5.199-7.077-9.783-10.791-13.55-.436-9.655 4.032-20.079 7.564-26.702zm-15.323 73.205c-1.406.26-2.808.271-4.186.057-3.183-5.199-7.077-9.783-10.79-13.55-.436-9.669 4.046-20.111 7.58-26.732 6.828 5.977 15.615 15.638 17.455 25.619.607 3.294-.104 6.628-2.004 9.387-1.899 2.758-4.76 4.612-8.055 5.219zm19.369 42.539c-3.296.608-6.628-.104-9.386-2.004-2.759-1.9-4.612-4.76-5.219-8.055-1.254-6.8 3.259-13.352 10.059-14.606 9.927-1.831 22.119 2.946 30.159 7.192-6.001 6.838-15.687 15.644-25.613 17.473zm26.071-33.888c-4.842-2.125-10.512-4.128-16.502-5.248-.691-1.211-1.181-2.524-1.44-3.932-.607-3.294.104-6.627 2.004-9.386s4.76-4.612 8.054-5.22c9.923-1.83 22.107 2.941 30.147 7.186-4.926 5.66-13.074 13.552-22.263 16.6zm22.736-33.01c-4.843-2.126-10.514-4.129-16.505-5.249-.691-1.211-1.18-2.523-1.439-3.931-.607-3.294.104-6.627 2.004-9.386s4.761-4.612 8.055-5.22c9.924-1.83 22.107 2.941 30.147 7.186-4.927 5.66-13.074 13.552-22.262 16.6zm22.732-33.009c-4.842-2.125-10.512-4.128-16.502-5.248-.691-1.212-1.181-2.525-1.44-3.932-.607-3.294.104-6.627 2.004-9.386s4.761-4.612 8.055-5.22c9.924-1.829 22.106 2.941 30.147 7.186-4.927 5.66-13.075 13.553-22.264 16.6zm22.735-33.009c-4.843-2.126-10.513-4.128-16.504-5.249-.691-1.211-1.181-2.524-1.44-3.931-.607-3.294.104-6.627 2.004-9.386 1.9-2.758 4.761-4.612 8.055-5.219 9.929-1.831 22.126 2.948 30.166 7.196-5.278 6.023-13.512 13.672-22.281 16.589z"/></svg>